<?xml version="1.0" standalone="no"?>
<!DOCTYPE svg PUBLIC "-//W3C//DTD SVG 20010904//EN"
 "http://www.w3.org/TR/2001/REC-SVG-20010904/DTD/svg10.dtd">
<svg version="1.0" xmlns="http://www.w3.org/2000/svg"
 width="1200.000000pt" height="1200.000000pt" viewBox="0 0 1200.000000 1200.000000"
 preserveAspectRatio="xMidYMid meet">
<metadata>
Created by potrace 1.11, written by Peter Selinger 2001-2013
</metadata>
<g transform="translate(0.000000,1200.000000) scale(0.100000,-0.100000)"
fill="#000000" stroke="none">
<path d="M0 6000 l0 -6000 6000 0 6000 0 0 6000 0 6000 -6000 0 -6000 0 0
-6000z m6410 2525 c458 -71 847 -239 1190 -513 328 -262 594 -639 743 -1054
168 -464 203 -1035 96 -1568 -162 -811 -726 -1481 -1484 -1765 -312 -117 -553
-159 -920 -160 -432 0 -746 70 -1095 245 -386 194 -720 510 -922 875 l-28 50
0 -1497 0 -1498 -240 0 -240 0 0 3435 0 3435 230 0 230 0 2 -580 3 -579 58 97
c96 161 186 280 311 410 189 195 367 327 601 444 268 135 499 200 865 242 84
10 500 -3 600 -19z"/>
<path d="M5840 8110 c-499 -36 -924 -225 -1260 -560 -307 -308 -507 -720 -576
-1185 -26 -170 -25 -553 0 -720 70 -463 255 -849 555 -1159 225 -231 471 -387
766 -485 223 -74 403 -101 675 -101 708 0 1286 302 1668 871 290 433 408 1022
322 1609 -110 750 -576 1348 -1251 1605 -253 97 -607 146 -899 125z"/>
</g>
</svg>
